<svg width="2476" height="2475" xmlns="http://www.w3.org/2000/svg" xmlns:xlink="http://www.w3.org/1999/xlink" xml:space="preserve" overflow="hidden"><defs><linearGradient x1="1556.08" y1="-255.054" x2="2842.18" y2="2731.01" gradientUnits="userSpaceOnUse" spreadMethod="reflect" id="fill0"><stop offset="0" stop-color="#ECEEF0" stop-opacity="0.901961"/><stop offset="0.04762" stop-color="#EBEDF0" stop-opacity="0.901961"/><stop offset="0.09524" stop-color="#EBEDF1" stop-opacity="0.901961"/><stop offset="0.14286" stop-color="#EBEDF1" stop-opacity="0.901961"/><stop offset="0.19048" stop-color="#EBEDF2" stop-opacity="0.901961"/><stop offset="0.2381" stop-color="#EAEDF2" stop-opacity="0.901961"/><stop offset="0.28571" stop-color="#E9EDF3" stop-opacity="0.901961"/><stop offset="0.33333" stop-color="#E9ECF3" stop-opacity="0.901961"/><stop offset="0.38095" stop-color="#E8ECF4" stop-opacity="0.901961"/><stop offset="0.42857" stop-color="#E7EBF4" stop-opacity="0.901961"/><stop offset="0.47619" stop-color="#E6EBF4" stop-opacity="0.901961"/><stop offset="0.52381" stop-color="#E5EBF5" stop-opacity="0.901961"/><stop offset="0.57143" stop-color="#E4EAF5" stop-opacity="0.901961"/><stop offset="0.61905" stop-color="#E3E9F5" stop-opacity="0.901961"/><stop offset="0.66667" stop-color="#E1E9F6" stop-opacity="0.901961"/><stop offset="0.71429" stop-color="#E0E8F6" stop-opacity="0.901961"/><stop offset="0.76191" stop-color="#DEE7F6" stop-opacity="0.901961"/><stop offset="0.80952" stop-color="#DDE7F6" stop-opacity="0.901961"/><stop offset="0.85714" stop-color="#DBE6F6" stop-opacity="0.901961"/><stop offset="0.90476" stop-color="#D9E5F6" stop-opacity="0.901961"/><stop offset="0.95238" stop-color="#D7E4F6" stop-opacity="0.901961"/><stop offset="1" stop-color="#D6E4F7" stop-opacity="0.901961"/></linearGradient></defs><g transform="translate(-961 0)"><path d="M1894.51 127.576C2046.25-33.9745 2300.27-41.9793 2461.89 109.698 2465.24 112.849 2468.55 116.062 2471.8 119.33L2471.8 119.33C2550.24 198.191 2657.91 240.98 2769.09 237.476L2769.09 237.476C2990.66 230.389 3176.04 404.191 3183.12 625.67 3183.27 630.364 3183.34 635.063 3183.32 639.76L3183.32 639.76C3183 750.973 3228.88 857.33 3309.98 933.453L3309.98 933.453C3471.6 1085.13 3479.6 1339.04 3327.86 1500.6 3324.71 1503.95 3321.5 1507.26 3318.23 1510.51L3318.23 1510.51C3239.34 1588.92 3196.53 1696.53 3200.03 1807.69L3200.03 1807.69C3207.14 2029.17 3033.28 2214.48 2811.71 2221.57 2807.01 2221.72 2802.29 2221.79 2797.59 2221.77L2797.59 2221.77C2686.34 2221.45 2579.94 2267.31 2503.78 2348.37L2503.78 2348.37C2352.04 2509.93 2098.03 2517.93 1936.4 2366.26 1933.05 2363.1 1929.75 2359.89 1926.49 2356.63L1926.49 2356.63C1848.06 2277.77 1740.39 2234.97 1629.18 2238.48L1629.18 2238.48C1407.62 2245.59 1222.24 2071.79 1215.15 1850.31 1214.99 1845.62 1214.92 1840.9 1214.93 1836.2L1214.93 1836.2C1215.26 1724.99 1169.39 1618.63 1088.28 1542.51L1088.28 1542.51C926.661 1390.83 918.659 1136.92 1070.4 975.364 1073.56 972.01 1076.76 968.707 1080.02 965.452L1080.02 965.452C1158.91 887.048 1201.73 779.427 1198.23 668.277L1198.23 668.277C1191.11 446.797 1364.99 261.493 1586.55 254.392 1591.25 254.24 1595.97 254.174 1600.66 254.187L1600.66 254.187C1711.92 254.515 1818.32 208.667 1894.48 127.588Z" fill="url(#fill0)" fill-rule="evenodd"/><g><g><g><path d="M2515.52 1439.88 2515.52 1170.04C2515.52 1004.36 2427.02 865.662 2272.67 828.964L2272.67 792.266C2272.46 747.433 2236.01 711.225 2191.18 711.314 2146.77 711.313 2110.76 747.314 2110.76 791.725 2110.76 791.905 2110.76 792.086 2110.76 792.266L2110.76 828.964C1955.88 865.662 1867.91 1003.82 1867.91 1170.04L1867.91 1439.88 1797.75 1509.5C1776.59 1530.49 1776.45 1564.66 1797.44 1585.82 1807.52 1595.98 1821.22 1601.72 1835.53 1601.78L2546.28 1601.78C2576.09 1601.96 2600.39 1577.93 2600.56 1548.13 2600.65 1533.63 2594.9 1519.71 2584.6 1509.5ZM2191.18 1763.69C2250.71 1763.51 2298.93 1715.29 2299.11 1655.75L2083.24 1655.75C2083.24 1715.36 2131.56 1763.69 2191.18 1763.69M1909.46 831.662C1931.2 811.926 1932.82 778.307 1913.08 756.572 1912.43 755.86 1911.77 755.165 1911.08 754.488 1890.46 733.966 1857.28 733.488 1836.07 753.409 1741.88 839.276 1679.66 954.59 1659.59 1080.45 1655.15 1110.26 1675.71 1138.02 1705.52 1142.46 1708.18 1142.86 1710.87 1143.06 1713.56 1143.06 1739.72 1142.92 1762 1124.04 1766.45 1098.26 1782.35 995.697 1832.81 901.64 1909.46 831.662M2547.9 753.409C2526.49 733.477 2493.18 733.953 2472.35 754.488 2451.61 775.146 2451.55 808.701 2472.21 829.437 2472.78 830.012 2473.37 830.574 2473.97 831.123 2550.41 901.26 2600.83 995.241 2616.98 1097.72 2621.05 1123.71 2643.57 1142.78 2669.87 1142.52 2699.68 1142.6 2723.91 1118.51 2723.99 1088.7 2724 1085.76 2723.77 1082.82 2723.3 1079.91 2703.13 954.479 2641.35 839.475 2547.9 753.409" fill="#00629E"/></g></g></g></g></svg>