<svg width="2549" height="2548" xmlns="http://www.w3.org/2000/svg" xmlns:xlink="http://www.w3.org/1999/xlink" xml:space="preserve" overflow="hidden"><g transform="translate(-925 36)"><path d="M1895.01 128.076C2046.75-33.4746 2300.77-41.4794 2462.39 110.198 2465.74 113.348 2469.05 116.562 2472.3 119.83L2472.3 119.83C2550.74 198.691 2658.41 241.48 2769.59 237.976L2769.59 237.976C2991.16 230.889 3176.54 404.69 3183.62 626.17 3183.77 630.864 3183.84 635.563 3183.82 640.26L3183.82 640.26C3183.5 751.473 3229.38 857.83 3310.47 933.953L3310.47 933.953C3472.1 1085.63 3480.1 1339.54 3328.36 1501.1 3325.21 1504.45 3322 1507.76 3318.73 1511.01L3318.73 1511.01C3239.84 1589.42 3197.03 1697.03 3200.53 1808.19L3200.53 1808.19C3207.64 2029.67 3033.78 2214.98 2812.21 2222.07 2807.51 2222.22 2802.79 2222.29 2798.09 2222.27L2798.09 2222.27C2686.84 2221.95 2580.44 2267.81 2504.28 2348.87L2504.28 2348.87C2352.54 2510.43 2098.53 2518.43 1936.9 2366.76 1933.55 2363.6 1930.25 2360.39 1926.99 2357.13L1926.99 2357.13C1848.56 2278.27 1740.89 2235.47 1629.68 2238.98L1629.68 2238.98C1408.12 2246.09 1222.74 2072.29 1215.65 1850.81 1215.49 1846.12 1215.42 1841.4 1215.43 1836.7L1215.43 1836.7C1215.76 1725.49 1169.89 1619.13 1088.78 1543.01L1088.78 1543.01C927.161 1391.33 919.159 1137.42 1070.9 975.864 1074.06 972.51 1077.26 969.206 1080.52 965.952L1080.52 965.952C1159.41 887.548 1202.23 779.927 1198.73 668.776L1198.73 668.776C1191.61 447.297 1365.49 261.993 1587.05 254.891 1591.75 254.74 1596.47 254.674 1601.16 254.686L1601.16 254.686C1712.42 255.015 1818.82 209.166 1894.98 128.088Z" stroke="currentColor" stroke-width="73.3333" stroke-miterlimit="8" fill="none" fill-rule="evenodd"/><g><g><g><path d="M2515.52 1439.88 2515.52 1170.04C2515.52 1004.36 2427.02 865.662 2272.67 828.964L2272.67 792.266C2272.46 747.433 2236.01 711.225 2191.18 711.314 2146.77 711.313 2110.76 747.314 2110.76 791.725 2110.76 791.905 2110.76 792.086 2110.76 792.266L2110.76 828.964C1955.88 865.662 1867.91 1003.82 1867.91 1170.04L1867.91 1439.88 1797.75 1509.5C1776.59 1530.49 1776.45 1564.66 1797.44 1585.82 1807.52 1595.98 1821.22 1601.72 1835.53 1601.78L2546.28 1601.78C2576.09 1601.96 2600.39 1577.93 2600.56 1548.13 2600.65 1533.63 2594.9 1519.71 2584.6 1509.5ZM2191.18 1763.69C2250.71 1763.51 2298.93 1715.29 2299.11 1655.75L2083.24 1655.75C2083.24 1715.36 2131.56 1763.69 2191.18 1763.69M1909.46 831.662C1931.2 811.926 1932.82 778.307 1913.08 756.572 1912.43 755.86 1911.77 755.165 1911.08 754.488 1890.46 733.966 1857.28 733.488 1836.07 753.409 1741.88 839.276 1679.66 954.59 1659.59 1080.45 1655.15 1110.26 1675.71 1138.02 1705.52 1142.46 1708.18 1142.86 1710.87 1143.06 1713.56 1143.06 1739.72 1142.92 1762 1124.04 1766.45 1098.26 1782.35 995.697 1832.81 901.64 1909.46 831.662M2547.9 753.409C2526.49 733.477 2493.18 733.953 2472.35 754.488 2451.61 775.146 2451.55 808.701 2472.21 829.437 2472.78 830.012 2473.37 830.574 2473.97 831.123 2550.41 901.26 2600.83 995.241 2616.98 1097.72 2621.05 1123.71 2643.57 1142.78 2669.87 1142.52 2699.68 1142.6 2723.91 1118.51 2723.99 1088.7 2724 1085.76 2723.77 1082.82 2723.3 1079.91 2703.13 954.479 2641.35 839.475 2547.9 753.409"/></g></g></g></g></svg>