<svg xmlns="http://www.w3.org/2000/svg" width="2548.347" height="2547.349" viewBox="0 0 2548.347 2547.349">
  <g id="appIcon_Comparation" transform="translate(-925.456 35.198)">
    <path id="路径_4" data-name="路径 4" d="M1895.01,128.076C2046.75-33.475,2300.77-41.479,2462.39,110.2q5.025,4.725,9.91,9.632h0a401.5,401.5,0,0,0,297.29,118.146h0c221.57-7.087,406.95,166.714,414.03,388.194q.225,7.041.2,14.09h0a401.262,401.262,0,0,0,126.65,293.693h0c161.63,151.677,169.63,405.587,17.89,567.147q-4.725,5.025-9.63,9.91h0a401.19,401.19,0,0,0-118.2,297.18h0c7.11,221.48-166.75,406.79-388.32,413.88-4.7.15-9.42.22-14.12.2h0a401.588,401.588,0,0,0-293.81,126.6h0c-151.74,161.56-405.75,169.56-567.38,17.89q-5.025-4.74-9.91-9.63h0a401.467,401.467,0,0,0-297.31-118.15h0c-221.56,7.11-406.94-166.69-414.03-388.17-.16-4.69-.23-9.41-.22-14.11h0a401.142,401.142,0,0,0-126.65-293.69h0c-161.619-151.68-169.621-405.59-17.88-567.146q4.74-5.031,9.62-9.912h0a401.194,401.194,0,0,0,118.21-297.176h0c-7.12-221.479,166.76-406.783,388.32-413.885,4.7-.151,9.42-.217,14.11-.205h0a401.489,401.489,0,0,0,293.82-126.6Z" fill="none" stroke="#000" stroke-miterlimit="8" stroke-width="73.333" fill-rule="evenodd"/>
    <path id="路径_5" data-name="路径 5" d="M160.186,911.134q-22.728,0-38.077-15.4t-15.4-38.077q-.053-22.675,15.4-38.077t38.077-15.4h53.478V429.828q0-110.968,66.848-197.175t173.8-113V82.218q0-33.424,23.424-56.794T534.536,2q33.371-.053,56.848,23.424t23.37,56.794v37.435q106.957,26.739,173.8,113t66.848,197.175V804.177h53.478q22.728,0,38.13,15.4t15.348,38.077q-.053,22.675-15.4,38.13t-38.077,15.348Zm374.349,160.435q-44.12,0-75.512-31.392t-31.445-75.565H641.493q0,44.12-31.392,75.565t-75.565,31.392M320.622,804.177H748.449V429.828q0-88.239-62.837-151.077T534.536,215.914q-88.239,0-151.077,62.837T320.622,429.828ZM53.23,429.828q-22.728,0-38.077-17.38T2.425,372.338q10.7-100.272,56.152-186.533A541.425,541.425,0,0,1,174.893,35.424q17.381-14.707,39.467-13.37t35.4,20.054q13.316,18.717,10.7,40.109T240.4,119.653a420.675,420.675,0,0,0-85.566,114.979q-33.424,65.511-44.12,141.718Q108.045,399.078,92,414.479T53.23,429.828m962.612,0q-22.728,0-38.772-15.4a61.087,61.087,0,0,1-18.717-38.077q-10.7-76.207-44.12-141.718a420.674,420.674,0,0,0-85.565-114.979q-17.38-16.044-20.054-37.435t10.7-40.109q13.37-18.717,35.456-20.054t39.414,13.37a542.465,542.465,0,0,1,116.316,150.381q45.456,86.207,56.152,186.533,2.674,22.728-12.674,40.109t-38.13,17.381" transform="translate(1665.087 701.692)"/>
  </g>
</svg>
