<svg xmlns="http://www.w3.org/2000/svg" xmlns:xlink="http://www.w3.org/1999/xlink" width="2475.001" height="2474.001" viewBox="0 0 2475.001 2474.001">
  <defs>
    <linearGradient id="linear-gradient" x1="0.24" y1="-0.103" x2="0.76" y2="1.103" gradientUnits="objectBoundingBox">
      <stop offset="0" stop-color="#eceef0" stop-opacity="0.902"/>
      <stop offset="0.048" stop-color="#ebedf0" stop-opacity="0.902"/>
      <stop offset="0.095" stop-color="#ebedf1" stop-opacity="0.902"/>
      <stop offset="0.143" stop-color="#ebedf1" stop-opacity="0.902"/>
      <stop offset="0.19" stop-color="#ebedf2" stop-opacity="0.902"/>
      <stop offset="0.238" stop-color="#eaedf2" stop-opacity="0.902"/>
      <stop offset="0.286" stop-color="#e9edf3" stop-opacity="0.902"/>
      <stop offset="0.333" stop-color="#e9ecf3" stop-opacity="0.902"/>
      <stop offset="0.381" stop-color="#e8ecf4" stop-opacity="0.902"/>
      <stop offset="0.429" stop-color="#e7ebf4" stop-opacity="0.902"/>
      <stop offset="0.476" stop-color="#e6ebf4" stop-opacity="0.902"/>
      <stop offset="0.524" stop-color="#e5ebf5" stop-opacity="0.902"/>
      <stop offset="0.571" stop-color="#e4eaf5" stop-opacity="0.902"/>
      <stop offset="0.619" stop-color="#e3e9f5" stop-opacity="0.902"/>
      <stop offset="0.667" stop-color="#e1e9f6" stop-opacity="0.902"/>
      <stop offset="0.714" stop-color="#e0e8f6" stop-opacity="0.902"/>
      <stop offset="0.762" stop-color="#dee7f6" stop-opacity="0.902"/>
      <stop offset="0.81" stop-color="#dde7f6" stop-opacity="0.902"/>
      <stop offset="0.857" stop-color="#dbe6f6" stop-opacity="0.902"/>
      <stop offset="0.905" stop-color="#d9e5f6" stop-opacity="0.902"/>
      <stop offset="0.952" stop-color="#d7e4f6" stop-opacity="0.902"/>
      <stop offset="1" stop-color="#d6e4f7" stop-opacity="0.902"/>
    </linearGradient>
  </defs>
  <g id="appIcon" transform="translate(-961.63 -0.976)">
    <path id="路径_1" data-name="路径 1" d="M1894.51,127.576c151.74-161.55,405.76-169.555,567.38-17.878q5.025,4.727,9.91,9.632h0a401.5,401.5,0,0,0,297.29,118.146h0c221.57-7.087,406.95,166.715,414.03,388.194q.225,7.041.2,14.09h0a401.234,401.234,0,0,0,126.66,293.693h0c161.62,151.677,169.62,405.587,17.88,567.147q-4.725,5.025-9.63,9.91h0a401.19,401.19,0,0,0-118.2,297.18h0c7.11,221.48-166.75,406.79-388.32,413.88-4.7.15-9.42.22-14.12.2h0a401.588,401.588,0,0,0-293.81,126.6h0c-151.74,161.56-405.75,169.56-567.38,17.89q-5.025-4.74-9.91-9.63h0a401.467,401.467,0,0,0-297.31-118.15h0c-221.56,7.11-406.94-166.69-414.03-388.17-.16-4.69-.23-9.41-.22-14.11h0a401.142,401.142,0,0,0-126.65-293.69h0c-161.619-151.68-169.621-405.59-17.88-567.146q4.74-5.031,9.62-9.912h0a401.193,401.193,0,0,0,118.21-297.175h0c-7.12-221.48,166.76-406.784,388.32-413.885,4.7-.152,9.42-.218,14.11-.205h0a401.49,401.49,0,0,0,293.82-126.6Z" fill-rule="evenodd" fill="url(#linear-gradient)"/>
    <path id="路径_3" data-name="路径 3" d="M160.186,911.134q-22.728,0-38.077-15.4t-15.4-38.077q-.053-22.675,15.4-38.077t38.077-15.4h53.478V429.828q0-110.968,66.848-197.175t173.8-113V82.218q0-33.424,23.424-56.794T534.536,2q33.371-.053,56.848,23.424t23.37,56.794v37.435q106.957,26.739,173.8,113t66.848,197.175V804.177h53.478q22.728,0,38.13,15.4t15.348,38.077q-.053,22.675-15.4,38.13t-38.077,15.348Zm374.349,160.435q-44.12,0-75.512-31.392t-31.445-75.565H641.493q0,44.12-31.392,75.565t-75.565,31.392M320.622,804.177H748.449V429.828q0-88.239-62.837-151.077T534.536,215.914q-88.239,0-151.077,62.837T320.622,429.828ZM53.23,429.828q-22.728,0-38.077-17.38T2.425,372.338q10.7-100.272,56.152-186.533A541.425,541.425,0,0,1,174.893,35.424q17.381-14.707,39.467-13.37t35.4,20.054q13.316,18.717,10.7,40.109T240.4,119.653a420.675,420.675,0,0,0-85.566,114.979q-33.424,65.511-44.12,141.718Q108.045,399.078,92,414.479T53.23,429.828m962.612,0q-22.728,0-38.772-15.4a61.087,61.087,0,0,1-18.717-38.077q-10.7-76.207-44.12-141.718a420.674,420.674,0,0,0-85.565-114.979q-17.38-16.044-20.054-37.435t10.7-40.109q13.37-18.717,35.456-20.054t39.414,13.37a542.465,542.465,0,0,1,116.316,150.381q45.456,86.207,56.152,186.533,2.674,22.728-12.674,40.109t-38.13,17.381" transform="translate(1664.587 701.192)" fill="#00629e"/>
  </g>
</svg>
